<mxfile host="app.diagrams.net" agent="Mozilla/5.0 (Windows NT 10.0; Win64; x64) AppleWebKit/537.36 (KHTML, like Gecko) Chrome/140.0.0.0 Safari/537.36" version="28.2.3">
  <diagram name="Page-1" id="CT5hhjYf7pBgd-oWzEUs">
    <mxGraphModel dx="1489" dy="851" grid="1" gridSize="10" guides="1" tooltips="1" connect="1" arrows="1" fold="1" page="1" pageScale="1" pageWidth="827" pageHeight="1169" math="0" shadow="0">
      <root>
        <mxCell id="0" />
        <mxCell id="1" parent="0" />
        <mxCell id="1MinkY8KgIvdM-612M__-11" value="" style="edgeStyle=orthogonalEdgeStyle;rounded=0;orthogonalLoop=1;jettySize=auto;html=1;" edge="1" parent="1" source="1MinkY8KgIvdM-612M__-1" target="1MinkY8KgIvdM-612M__-4">
          <mxGeometry relative="1" as="geometry" />
        </mxCell>
        <mxCell id="1MinkY8KgIvdM-612M__-1" value="START" style="ellipse;whiteSpace=wrap;html=1;" vertex="1" parent="1">
          <mxGeometry x="349" y="120" width="120" height="80" as="geometry" />
        </mxCell>
        <mxCell id="1MinkY8KgIvdM-612M__-12" value="" style="edgeStyle=orthogonalEdgeStyle;rounded=0;orthogonalLoop=1;jettySize=auto;html=1;" edge="1" parent="1" source="1MinkY8KgIvdM-612M__-4" target="1MinkY8KgIvdM-612M__-5">
          <mxGeometry relative="1" as="geometry" />
        </mxCell>
        <mxCell id="1MinkY8KgIvdM-612M__-4" value="nháº­p a,b,c" style="shape=parallelogram;perimeter=parallelogramPerimeter;whiteSpace=wrap;html=1;fixedSize=1;" vertex="1" parent="1">
          <mxGeometry x="349" y="260" width="120" height="60" as="geometry" />
        </mxCell>
        <mxCell id="1MinkY8KgIvdM-612M__-7" value="Yes" style="edgeStyle=orthogonalEdgeStyle;rounded=0;orthogonalLoop=1;jettySize=auto;html=1;" edge="1" parent="1" source="1MinkY8KgIvdM-612M__-5" target="1MinkY8KgIvdM-612M__-6">
          <mxGeometry relative="1" as="geometry" />
        </mxCell>
        <mxCell id="1MinkY8KgIvdM-612M__-9" value="No" style="edgeStyle=orthogonalEdgeStyle;rounded=0;orthogonalLoop=1;jettySize=auto;html=1;" edge="1" parent="1" source="1MinkY8KgIvdM-612M__-5">
          <mxGeometry relative="1" as="geometry">
            <mxPoint x="279" y="400" as="targetPoint" />
          </mxGeometry>
        </mxCell>
        <mxCell id="1MinkY8KgIvdM-612M__-5" value="a&amp;gt;b?" style="rhombus;whiteSpace=wrap;html=1;" vertex="1" parent="1">
          <mxGeometry x="369" y="360" width="80" height="80" as="geometry" />
        </mxCell>
        <mxCell id="1MinkY8KgIvdM-612M__-14" value="Yes" style="edgeStyle=orthogonalEdgeStyle;rounded=0;orthogonalLoop=1;jettySize=auto;html=1;" edge="1" parent="1" source="1MinkY8KgIvdM-612M__-6" target="1MinkY8KgIvdM-612M__-13">
          <mxGeometry relative="1" as="geometry" />
        </mxCell>
        <mxCell id="1MinkY8KgIvdM-612M__-16" value="No" style="edgeStyle=orthogonalEdgeStyle;rounded=0;orthogonalLoop=1;jettySize=auto;html=1;" edge="1" parent="1" source="1MinkY8KgIvdM-612M__-6" target="1MinkY8KgIvdM-612M__-15">
          <mxGeometry relative="1" as="geometry">
            <Array as="points">
              <mxPoint x="569" y="540" />
            </Array>
          </mxGeometry>
        </mxCell>
        <mxCell id="1MinkY8KgIvdM-612M__-6" value="a&amp;gt;c?" style="rhombus;whiteSpace=wrap;html=1;" vertex="1" parent="1">
          <mxGeometry x="529" y="360" width="80" height="80" as="geometry" />
        </mxCell>
        <mxCell id="1MinkY8KgIvdM-612M__-18" value="Yes" style="edgeStyle=orthogonalEdgeStyle;rounded=0;orthogonalLoop=1;jettySize=auto;html=1;" edge="1" parent="1" source="1MinkY8KgIvdM-612M__-10" target="1MinkY8KgIvdM-612M__-17">
          <mxGeometry relative="1" as="geometry" />
        </mxCell>
        <mxCell id="1MinkY8KgIvdM-612M__-20" value="No" style="edgeStyle=orthogonalEdgeStyle;rounded=0;orthogonalLoop=1;jettySize=auto;html=1;entryX=0;entryY=0.5;entryDx=0;entryDy=0;" edge="1" parent="1" source="1MinkY8KgIvdM-612M__-10" target="1MinkY8KgIvdM-612M__-15">
          <mxGeometry relative="1" as="geometry">
            <Array as="points">
              <mxPoint x="239" y="540" />
            </Array>
          </mxGeometry>
        </mxCell>
        <mxCell id="1MinkY8KgIvdM-612M__-10" value="b&amp;gt;c?" style="rhombus;whiteSpace=wrap;html=1;" vertex="1" parent="1">
          <mxGeometry x="199" y="360" width="80" height="80" as="geometry" />
        </mxCell>
        <mxCell id="1MinkY8KgIvdM-612M__-25" style="edgeStyle=orthogonalEdgeStyle;rounded=0;orthogonalLoop=1;jettySize=auto;html=1;entryX=1;entryY=0.5;entryDx=0;entryDy=0;" edge="1" parent="1" source="1MinkY8KgIvdM-612M__-13" target="1MinkY8KgIvdM-612M__-22">
          <mxGeometry relative="1" as="geometry">
            <Array as="points">
              <mxPoint x="759" y="715" />
            </Array>
          </mxGeometry>
        </mxCell>
        <mxCell id="1MinkY8KgIvdM-612M__-13" value="Max=a" style="rounded=0;whiteSpace=wrap;html=1;" vertex="1" parent="1">
          <mxGeometry x="689" y="370" width="120" height="60" as="geometry" />
        </mxCell>
        <mxCell id="1MinkY8KgIvdM-612M__-24" value="" style="edgeStyle=orthogonalEdgeStyle;rounded=0;orthogonalLoop=1;jettySize=auto;html=1;" edge="1" parent="1" source="1MinkY8KgIvdM-612M__-15" target="1MinkY8KgIvdM-612M__-22">
          <mxGeometry relative="1" as="geometry" />
        </mxCell>
        <mxCell id="1MinkY8KgIvdM-612M__-15" value="Max=c" style="whiteSpace=wrap;html=1;" vertex="1" parent="1">
          <mxGeometry x="349" y="510" width="120" height="60" as="geometry" />
        </mxCell>
        <mxCell id="1MinkY8KgIvdM-612M__-23" style="edgeStyle=orthogonalEdgeStyle;rounded=0;orthogonalLoop=1;jettySize=auto;html=1;" edge="1" parent="1" source="1MinkY8KgIvdM-612M__-17" target="1MinkY8KgIvdM-612M__-22">
          <mxGeometry relative="1" as="geometry">
            <Array as="points">
              <mxPoint x="69" y="715" />
            </Array>
          </mxGeometry>
        </mxCell>
        <mxCell id="1MinkY8KgIvdM-612M__-17" value="Max=b" style="whiteSpace=wrap;html=1;" vertex="1" parent="1">
          <mxGeometry x="19" y="370" width="120" height="60" as="geometry" />
        </mxCell>
        <mxCell id="1MinkY8KgIvdM-612M__-22" value="end" style="ellipse;whiteSpace=wrap;html=1;" vertex="1" parent="1">
          <mxGeometry x="349" y="675" width="120" height="80" as="geometry" />
        </mxCell>
      </root>
    </mxGraphModel>
  </diagram>
</mxfile>
